# xmcd
#
# Track frame offsets: 
#        150
#        12398
#        24008
#        36585
#        48291
#        60818
#        72266
#        84046
#        97033
#        110801
#        120114
#        133075
#
# Disc length: 1933 seconds
#
# Revision: 0
# Processed by: cddbd v1.5.2PL0 Copyright (c) Steve Scherf et al.
# Submitted via: ExactAudioCopy v0.95b4
#
DISCID=8f078b0c
DTITLE=Flatt and Scruggs - The Golden Era
DYEAR=1978
DGENRE=Bluegrass
TTITLE0=Flint Hill Special
TTITLE1=Your Love is Like a Flower
TTITLE2=I'm Waiting to Hear You Call Me Darling
TTITLE3=Head Over Heels in Love With You
TTITLE4=I'm Working on a Road to Gloryland
TTITLE5=Till The End of the World Rolls Around
TTITLE6=I'm Gonna Sleep With One Eye Open
TTITLE7=Dim Lights, Thick Smoke
TTITLE8=Don't This Road Look Rough and Rocky
TTITLE9=Randy Lynn Rag
TTITLE10=Old Hometown
TTITLE11=Brother I'm Getting Ready to Go
EXTD=
EXTT0=
EXTT1=
EXTT2=
EXTT3=
EXTT4=
EXTT5=
EXTT6=
EXTT7=
EXTT8=
EXTT9=
EXTT10=
EXTT11=
PLAYORDER=
